External Loads File
version=1
nRows=31
nColumns=13
Range=5.000000e-03-10 seconds
endheader
time 	forceRightX 	forceRightY 	forceRightZ 	pointRightX 	pointRightY 	pointRightZ 	forceLeftX 	forceLeftY 	forceLeftZ 	pointLeftX 	pointLeftY 	pointLeftZ 		
5.005000 -28.612438 -67.429385 -0.000000 0.178728 0.307087 -0.190805 -63.283586 540.093089 -0.000000 0.479125 0.341176 -0.444864
5.010000 -31.041138 -64.923391 -0.000000 0.178763 0.314287 -0.190853 -64.473823 556.699064 -0.000000 0.479593 0.333420 -0.444919
5.015000 -32.577623 -62.191979 -0.000000 0.179053 0.321521 -0.190858 -65.280225 574.675466 -0.000000 0.479902 0.325631 -0.445530
5.020000 -33.539939 -59.408365 -0.000000 0.179672 0.328905 -0.190917 -65.828122 594.157163 -0.000000 0.479855 0.317913 -0.445397
5.025000 -34.185547 -56.661786 -0.000000 0.180562 0.336296 -0.190953 -66.224731 615.234857 -0.000000 0.479558 0.310190 -0.445058
5.030000 -34.695516 -53.974933 -0.000000 0.181849 0.343672 -0.190947 -66.240537 637.900975 -0.000000 0.479017 0.302443 -0.445013
5.035000 -35.145081 -51.364855 -0.000000 0.183357 0.351027 -0.191010 -65.746932 661.995773 -0.000000 0.478081 0.294765 -0.444990
5.040000 -35.606005 -48.825890 -0.000000 0.185041 0.358439 -0.191016 -64.115173 687.322407 -0.000000 0.476809 0.287056 -0.444880
5.045000 -36.101228 -46.371465 -0.000000 0.187332 0.365870 -0.190907 -61.200044 713.572556 -0.000000 0.475282 0.279397 -0.444798
5.050000 -36.594291 -44.027634 -0.000000 0.189772 0.373202 -0.191227 -57.646381 740.326695 -0.000000 0.473309 0.271959 -0.444682
5.055000 -37.114717 -41.730026 -0.000000 0.192462 0.380569 -0.191256 -52.854315 767.272256 -0.000000 0.471164 0.264571 -0.444566
5.060000 -37.635095 -39.448823 -0.000000 0.195538 0.387747 -0.191483 -47.078907 794.052629 -0.000000 0.468724 0.257225 -0.444473
5.065000 -38.153992 -37.147258 -0.000000 0.198829 0.394889 -0.191672 -40.224964 820.326732 -0.000000 0.465996 0.249976 -0.444278
5.070000 -38.653480 -34.825432 -0.000000 0.202311 0.401904 -0.191852 -32.665637 845.676460 -0.000000 0.462975 0.242868 -0.444190
5.075000 -39.154016 -32.458700 -0.000000 0.206126 0.408936 -0.192114 -24.043817 869.677692 -0.000000 0.459696 0.235947 -0.444056
5.080000 -39.639865 -30.072035 -0.000000 0.210179 0.415785 -0.192263 -14.923015 891.878549 -0.000000 0.456058 0.229227 -0.444032
5.085000 -40.104301 -27.685829 -0.000000 0.214351 0.422587 -0.192420 -5.477418 911.899757 -0.000000 0.452263 0.222653 -0.443911
5.090000 -40.536492 -25.323599 -0.000000 0.218944 0.429132 -0.192556 4.315688 929.428331 -0.000000 0.448175 0.216329 -0.443811
5.095000 -40.943049 -22.956672 -0.000000 0.223861 0.435691 -0.192747 15.312793 944.154821 -0.000000 0.443798 0.210099 -0.443730
5.100000 -41.261025 -20.621497 -0.000000 0.228857 0.441838 -0.193032 25.601881 955.768214 -0.000000 0.439219 0.204165 -0.443685
5.105000 -41.507060 -18.157392 -0.000000 0.234047 0.447885 -0.193208 36.482869 963.895653 -0.000000 0.434361 0.198486 -0.443621
5.110000 -41.671803 -15.407574 -0.000000 0.239542 0.453914 -0.193417 48.511293 968.182154 -0.000000 0.429277 0.192962 -0.443590
5.115000 -41.714311 -12.274595 -0.000000 0.245176 0.459644 -0.193762 60.453707 968.448517 -0.000000 0.423992 0.187730 -0.443587
5.120000 -41.601672 -8.644585 -0.000000 0.250641 0.464856 -0.194353 70.964322 964.720233 -0.000000 0.418537 0.182864 -0.443527
5.125000 -41.350843 -4.073188 -0.000000 0.257854 0.470186 -0.192920 86.184496 956.575101 -0.000000 0.412817 0.178229 -0.443541
5.130000 -40.868619 1.133048 -0.000000 0.263207 0.474972 -0.193870 95.413768 945.076925 -0.000000 0.407000 0.173833 -0.443522
5.135000 -40.175255 7.394309 -0.000000 0.269402 0.479654 -0.194050 106.067902 929.863689 -0.000000 0.400971 0.169811 -0.443513
5.140000 -39.254422 14.632440 -0.000000 0.275726 0.483951 -0.194332 115.777697 911.520822 -0.000000 0.394842 0.165998 -0.443556
5.145000 -38.106314 22.802002 -0.000000 0.282188 0.487963 -0.194517 124.492815 890.475330 -0.000000 0.388568 0.162648 -0.443529
5.150000 -36.732524 31.815240 -0.000000 0.288669 0.491614 -0.194527 132.251691 867.156029 -0.000000 0.382089 0.159480 -0.443520
5.155000 -35.147690 41.532370 -0.000000 0.295281 0.494907 -0.194673 138.755313 842.004875 -0.000000 0.375596 0.156632 -0.443489
